<?xml version="1.0" encoding="UTF-8" standalone="no"?>
<!-- Created with Inkscape (http://www.inkscape.org/) -->

<svg
   xmlns:dc="http://purl.org/dc/elements/1.1/"
   xmlns:cc="http://creativecommons.org/ns#"
   xmlns:rdf="http://www.w3.org/1999/02/22-rdf-syntax-ns#"
   xmlns:svg="http://www.w3.org/2000/svg"
   xmlns="http://www.w3.org/2000/svg"
   xmlns:sodipodi="http://sodipodi.sourceforge.net/DTD/sodipodi-0.dtd"
   xmlns:inkscape="http://www.inkscape.org/namespaces/inkscape"
   id="svg2"
   version="1.1"
   inkscape:version="0.92.1 r15371"
   width="373.33282"
   height="449.33041"
   xml:space="preserve"
   sodipodi:docname="estilema.svg"><metadata
     id="metadata8"><rdf:RDF><cc:Work
         rdf:about=""><dc:format>image/svg+xml</dc:format><dc:type
           rdf:resource="http://purl.org/dc/dcmitype/StillImage" /><dc:title /></cc:Work></rdf:RDF></metadata><defs
     id="defs6"><clipPath
       clipPathUnits="userSpaceOnUse"
       id="clipPath20"><path
         d="M 0,0 H 298.66667 V 359.46667 H 0 Z"
         id="path22"
         inkscape:connector-curvature="0"
         style="stroke-width:1.06666672" /></clipPath><clipPath
       clipPathUnits="userSpaceOnUse"
       id="clipPath32"><path
         d="M 0,0 H 298.66667 V 359.46667 H 0 Z"
         id="path34"
         inkscape:connector-curvature="0"
         style="stroke-width:1.06666672" /></clipPath></defs><sodipodi:namedview
     pagecolor="#ffffff"
     bordercolor="#666666"
     borderopacity="1"
     objecttolerance="10"
     gridtolerance="10"
     guidetolerance="10"
     inkscape:pageopacity="0"
     inkscape:pageshadow="2"
     inkscape:window-width="1278"
     inkscape:window-height="985"
     id="namedview4"
     showgrid="false"
     inkscape:zoom="1.3"
     inkscape:cx="180.10811"
     inkscape:cy="210.62363"
     inkscape:window-x="5"
     inkscape:window-y="5"
     inkscape:window-maximized="0"
     inkscape:current-layer="g10" /><g
     id="g10"
     inkscape:groupmode="layer"
     inkscape:label="F-1"
     transform="matrix(1.25,0,0,-1.25,0,449.3304)"><g
       transform="translate(0,-0.00234375)"
       id="g14"><g
         id="g16"><g
           clip-path="url(#clipPath20)"
           id="g18"><g
             id="g24"><g
               id="g26"><g
                 id="g28"><g
                   clip-path="url(#clipPath32)"
                   id="g30"><g
                     id="g36"><path
                       inkscape:connector-curvature="0"
                       id="path38"
                       style="fill:#000000;fill-opacity:1;fill-rule:nonzero;stroke:none;stroke-width:1.06666672"
                       d="m 225.5456,117.24587 c 0,-8.688 -7.81227,-15.72907 -17.45387,-15.72907 H 91.787733 c -9.6416,0 -17.453866,7.04107 -17.453866,15.72907 v 109.92106 c 0,8.68267 7.812266,15.72907 17.453866,15.72907 H 208.09173 c 9.6416,0 17.45387,-7.0464 17.45387,-15.72907 z m -31.104,-53.208537 c -8.11627,0 -14.68693,4.9504 -14.68693,11.058134 0,6.113066 6.57066,11.066666 14.68693,11.066666 8.11307,0 14.688,-4.9536 14.688,-11.066666 0,-6.107734 -6.57493,-11.058134 -14.688,-11.058134 m -45.41653,0 c -8.11627,0 -14.6912,4.9504 -14.6912,11.058134 0,6.113066 6.57493,11.066666 14.6912,11.066666 8.112,0 14.6912,-4.9536 14.6912,-11.066666 0,-6.107734 -6.5792,-11.058134 -14.6912,-11.058134 m -47.27467,0 c -8.117333,0 -14.692267,4.9504 -14.692267,11.058134 0,6.113066 6.574934,11.066666 14.692267,11.066666 8.112,0 14.6912,-4.9536 14.6912,-11.066666 0,-6.107734 -6.5792,-11.058134 -14.6912,-11.058134 m 48.1952,266.312537 c 15.27573,0 27.66293,-11.75787 27.66293,-26.27094 0,-14.50346 -12.3872,-26.26666 -27.66293,-26.26666 -15.2832,0 -27.6704,11.7632 -27.6704,26.26666 0,14.51307 12.3872,26.27094 27.6704,26.27094 m -0.61227,29.1168 C 82.666667,359.46667 0,278.99947 0,179.7376 0,80.4704 66.858667,0.00426667 149.33333,0.00426667 c 82.47894,0 149.33334,80.46613333 149.33334,179.73333333 0,99.26187 -85.3088,179.72907 -149.33334,179.72907" /><path
                       inkscape:connector-curvature="0"
                       id="path40"
                       style="fill:#f2f91c;fill-opacity:1;fill-rule:nonzero;stroke:none;stroke-width:1.06666672"
                       d="M 205.74613,169.17547 H 193.9328 v -11.1424 h -11.808 v 11.1424 h 11.808 v 11.14133 h -11.53707 v 11.1456 h 11.81654 v -11.1456 h 11.53386 z M 182.1248,145.8624 h -11.81653 v -11.13707 h -11.808 v 11.13707 h 11.808 v 11.1456 h 11.81653 z m -35.4368,12.17067 h -11.80907 v 11.1424 H 146.688 v 11.14133 h -11.80907 v 11.1456 H 146.688 v -11.1456 h 11.81227 V 169.17547 H 146.688 Z M 134.87893,145.8624 H 123.0624 v -11.13707 h -11.81227 v 11.13707 h 11.81227 v 11.1456 h 11.81653 z m -12.35413,56.74133 h 11.81227 V 191.4624 H 122.5248 Z m 47.5168,0 h 11.81227 V 191.4624 H 170.0416 Z M 208.09173,242.896 H 91.787733 c -9.637333,0 -17.453866,-7.0464 -17.453866,-15.73333 v -109.9168 c 0,-8.688 7.816533,-15.73334 17.453866,-15.73334 H 208.09173 c 9.6416,0 17.45387,7.04534 17.45387,15.73334 v 109.9168 c 0,8.68693 -7.81227,15.73333 -17.45387,15.73333" /><path
                       inkscape:connector-curvature="0"
                       id="path42"
                       style="fill:#f0047f;fill-opacity:1;fill-rule:nonzero;stroke:none;stroke-width:1.06666672"
                       d="m 101.7504,86.162133 c -8.117333,0 -14.692267,-4.9536 -14.692267,-11.066666 0,-6.107734 6.574934,-11.058134 14.692267,-11.058134 8.10773,0 14.6912,4.9504 14.6912,11.058134 0,6.113066 -6.58347,11.066666 -14.6912,11.066666" /><path
                       inkscape:connector-curvature="0"
                       id="path44"
                       style="fill:#f0047f;fill-opacity:1;fill-rule:nonzero;stroke:none;stroke-width:1.06666672"
                       d="m 194.4416,86.162133 c -8.11627,0 -14.68693,-4.9536 -14.68693,-11.066666 0,-6.107734 6.57066,-11.058134 14.68693,-11.058134 8.11307,0 14.688,4.9504 14.688,11.058134 0,6.113066 -6.57493,11.066666 -14.688,11.066666" /><path
                       inkscape:connector-curvature="0"
                       id="path46"
                       style="fill:#f0047f;fill-opacity:1;fill-rule:nonzero;stroke:none;stroke-width:1.06666672"
                       d="m 149.02507,86.162133 c -8.11307,0 -14.6912,-4.9536 -14.6912,-11.066666 0,-6.107734 6.57813,-11.058134 14.6912,-11.058134 8.112,0 14.68693,4.9504 14.68693,11.058134 0,6.113066 -6.57493,11.066666 -14.68693,11.066666" /><path
                       inkscape:connector-curvature="0"
                       id="path48"
                       style="fill:#3bade6;fill-opacity:1;fill-rule:nonzero;stroke:none;stroke-width:1.06666672"
                       d="m 149.9456,277.81227 c 15.27573,0 27.6672,11.7632 27.6672,26.26666 0,14.51307 -12.39147,26.26667 -27.6672,26.26667 -15.28747,0 -27.67467,-11.7536 -27.67467,-26.26667 0,-14.50346 12.3872,-26.26666 27.67467,-26.26666" /><path
                       inkscape:connector-curvature="0"
                       id="path50"
                       style="fill:#000000;fill-opacity:1;fill-rule:nonzero;stroke:none;stroke-width:1.06666672"
                       d="m 111.24587,145.86667 h 11.81226 v -11.14134 h -11.81226 z" /><path
                       inkscape:connector-curvature="0"
                       id="path52"
                       style="fill:#000000;fill-opacity:1;fill-rule:nonzero;stroke:none;stroke-width:1.06666672"
                       d="m 123.0624,157.01227 h 11.81653 v -11.1456 H 123.0624 Z" /><path
                       inkscape:connector-curvature="0"
                       id="path54"
                       style="fill:#000000;fill-opacity:1;fill-rule:nonzero;stroke:none;stroke-width:1.06666672"
                       d="m 134.87467,169.17867 h 11.81226 v -11.1456 h -11.81226 z" /><path
                       inkscape:connector-curvature="0"
                       id="path56"
                       style="fill:#000000;fill-opacity:1;fill-rule:nonzero;stroke:none;stroke-width:1.06666672"
                       d="m 146.688,180.32107 h 11.81227 V 169.17973 H 146.688 Z" /><path
                       inkscape:connector-curvature="0"
                       id="path58"
                       style="fill:#000000;fill-opacity:1;fill-rule:nonzero;stroke:none;stroke-width:1.06666672"
                       d="m 134.87467,191.4624 h 11.81226 v -11.14133 h -11.81226 z" /><path
                       inkscape:connector-curvature="0"
                       id="path60"
                       style="fill:#000000;fill-opacity:1;fill-rule:nonzero;stroke:none;stroke-width:1.06666672"
                       d="M 122.52053,202.60373 H 134.3328 V 191.4624 h -11.81227 z" /><path
                       inkscape:connector-curvature="0"
                       id="path62"
                       style="fill:#000000;fill-opacity:1;fill-rule:nonzero;stroke:none;stroke-width:1.06666672"
                       d="m 194.21227,191.4624 h -11.81654 v -11.14133 h 11.54134 v -11.1424 h 11.80906 v 11.1424 h -11.53386 z" /><path
                       inkscape:connector-curvature="0"
                       id="path64"
                       style="fill:#000000;fill-opacity:1;fill-rule:nonzero;stroke:none;stroke-width:1.06666672"
                       d="m 170.04587,202.60373 h 11.808 V 191.4624 h -11.808 z" /><path
                       inkscape:connector-curvature="0"
                       id="path66"
                       style="fill:#000000;fill-opacity:1;fill-rule:nonzero;stroke:none;stroke-width:1.06666672"
                       d="m 158.50027,145.86667 h 11.81226 v -11.14134 h -11.81226 z" /><path
                       inkscape:connector-curvature="0"
                       id="path68"
                       style="fill:#000000;fill-opacity:1;fill-rule:nonzero;stroke:none;stroke-width:1.06666672"
                       d="m 170.31253,157.01227 h 11.81227 v -11.1456 h -11.81227 z" /><path
                       inkscape:connector-curvature="0"
                       id="path70"
                       style="fill:#000000;fill-opacity:1;fill-rule:nonzero;stroke:none;stroke-width:1.06666672"
                       d="m 182.1248,169.17867 h 11.81227 v -11.1456 H 182.1248 Z" /></g></g></g></g></g></g></g></g></g></svg>